<svg width="770" height="496" viewBox="0 0 770 496" fill="none" xmlns="http://www.w3.org/2000/svg">
<path fill-rule="evenodd" clip-rule="evenodd" d="M510.526 603.472C510.447 581.492 478.815 556.773 465.303 544.03C438.586 518.824 410.8 495.548 383.27 471.901C355.741 448.253 328.138 424.669 301.887 398.708C284.842 381.855 264.814 362.874 253.255 338.81C228.629 287.527 306.272 295.143 326.383 294.021C377.547 291.155 436.233 292.463 484.191 265.758C512.82 249.815 524.236 223.078 518.087 184.109C516.105 171.436 510.239 156.853 515.208 144.507C520.515 131.32 532.724 123.711 542.857 118.609C579.815 100.019 622.308 97.8651 661.412 95.5317C703.578 92.9676 746.14 93.7176 788.009 93.5189C805.762 93.4355 824.303 85.1854 841.209 78.4802C863.372 69.6917 885.273 59.8198 907.252 50.2749C955.607 29.326 1005.43 7.26165 1056.59 1.94109C1088.63 -1.39228 1123.65 3.11418 1148.53 32.1081C1161.03 46.6659 1167.57 68.3071 1174.8 87.5316C1183.54 110.756 1191.94 134.205 1201.25 157.064C1231.24 230.687 1274.06 302.63 1343.56 306.245C1354.08 306.79 1364.4 305.015 1374.87 304.681C1381.53 304.476 1387.46 306.559 1389.94 315.579C1396.17 338.201 1376.59 373.913 1368.57 391.861C1350.99 431.15 1331.17 468.676 1312.61 507.177C1300.32 532.638 1279.06 567.434 1278.84 598.37C1278.64 625.934 1306.98 645.857 1322.41 659.435C1336.87 672.146 1363.07 689.935 1364.65 715.794C1365.42 728.333 1359.03 738.724 1352.35 746.788C1340.65 760.891 1327.18 770.839 1316.65 786.929C1299.4 813.327 1284.98 849.648 1287.32 885.219C1288.95 909.866 1299.82 926.008 1313.65 941.437C1319.46 947.924 1324.17 952.514 1324.48 963.046C1324.98 979.771 1319.91 997.47 1315.74 1012.98C1300.82 1068.47 1279.62 1122.13 1256.04 1172.23C1244.26 1197.27 1231.53 1222.23 1215.91 1243.59C1205.67 1257.62 1191.87 1274.31 1176.27 1274.29C1158.2 1274.29 1139.08 1265.86 1121.51 1259.55C1088.7 1247.76 1056.29 1234.13 1024.01 1220.15C949.361 1187.8 875.409 1152.84 802.16 1115.25C750.565 1088.73 697.875 1062.18 649.366 1026.92C639.906 1020 630.977 1011.92 622.699 1002.81C613.855 993.239 602.88 988.957 591.751 985.765C522.68 965.95 447.01 981.162 377.651 990.7C360.047 993.117 342.442 995.547 324.788 997.239C309.611 998.694 291.442 1002.87 276.691 996.598C247.626 984.258 273.034 938.777 283.777 920.245C321.597 854.994 370.393 799.788 415.621 743.429C437.125 716.589 458.792 689.819 479.127 661.46C489.716 646.716 510.596 622.742 510.526 603.472Z" stroke="#5BE7C3" stroke-width="2"/>
<path fill-rule="evenodd" clip-rule="evenodd" d="M523.56 599.76C511.967 576.501 491.628 559.31 474.745 543.131C450.45 519.84 425.391 497.843 400.709 475.212C377.37 453.811 353.982 432.166 332.369 407.863C319.19 393.042 302.654 375.319 296.412 353.399C282.871 305.888 355.717 313.096 373.701 311.853C418.41 308.778 469.098 308.073 510.46 283.058C536.287 267.437 546.898 241.531 541.389 205.566C539.486 193.123 536.054 182.499 540.398 170.12C545.421 155.793 556.973 146.861 567.564 140.556C600.74 120.801 639.955 116.605 675.917 113.112C713.069 109.505 751.778 106.961 787.736 109.601C802.115 110.652 818.665 104.687 832.896 100.112C854.791 93.0634 876.464 84.9323 898.25 77.3715C942.528 61.9935 987.955 47.1795 1034.02 45.4943C1067.27 44.2769 1101.95 50.8766 1129.61 76.3847C1157.65 102.252 1170.09 142.35 1185.64 180.468C1212.5 246.369 1248.76 326.494 1310.89 340.418C1320.31 342.532 1329.37 341.385 1338.78 341.904C1343.62 342.167 1349.13 343 1351.58 349.17C1357.95 365.189 1340.49 394.478 1334.62 406.748C1318.38 440.656 1300.13 472.905 1283.12 506.16C1269.61 532.565 1252.48 561.905 1247.26 593.206C1240.92 631.189 1282.35 658.216 1296.92 684.961C1322.19 731.338 1274.32 757.762 1250.73 779.875C1223.63 805.261 1201.26 851.574 1225.56 890.852C1234.85 905.871 1246.28 914.823 1250.43 934.423C1256.92 965.076 1252.01 1000.11 1246.75 1030.41C1238.81 1075.96 1226.26 1121.02 1209.19 1162.18C1196.97 1191.66 1176.68 1237.87 1146.98 1234.41C1126.98 1232.1 1106.65 1223.64 1087.18 1216.17C1058.03 1204.99 1029.24 1192.25 1000.6 1179.01C934.505 1148.54 869.136 1114.93 805.05 1077.98C761.323 1052.75 639.35 949.66 630.172 945.982C602.807 935.025 571.694 936.954 543.482 938.652C505.953 940.907 468.612 946.751 431.301 952.165C413.541 954.728 395.691 957.862 377.836 959.124C365.128 960.021 348.439 960.79 337.307 951.236C315.58 932.597 339.787 889.949 349.797 871.905C380.464 816.59 419.258 768.687 455.631 719.708C473.481 695.661 491.604 671.652 507.807 645.676C514.342 635.187 530.724 614.126 523.56 599.76Z" stroke="#5ACEF2" stroke-width="2"/>
<path fill-rule="evenodd" clip-rule="evenodd" d="M539.597 587.839C507.938 541.295 464.243 506.679 426.531 467.806C407.603 448.29 388.556 428.242 372.231 404.995C363.738 392.907 353.134 377.621 351.498 360.771C347.126 315.695 412.783 321.79 432.435 320.079C470.43 316.759 513.352 314.24 547.822 291.237C568.881 277.175 579.252 254.095 575.316 223.76C573.571 210.301 570.854 198.867 575.316 185.651C579.837 172.262 589.257 162.814 598.795 155.732C626.205 135.364 660.268 128.852 691.129 124C727.332 118.349 763.807 116.142 800.259 117.398C832.186 118.481 863.959 106.297 895.132 98.2666C936.428 87.6336 978.473 78.3466 1020.73 79.7502C1054.1 80.8655 1087.74 89.6269 1116.27 112.912C1145.26 136.626 1162.69 172.121 1178.41 210.423C1202.17 268.324 1231.77 345.915 1283.89 367.905C1291.47 371.11 1298.54 371.462 1306.35 372.02C1310.15 372.289 1315.05 372.372 1316.94 377.493C1321.47 389.825 1304.72 413.731 1300.04 422.063C1285.12 448.662 1268.94 474.062 1253.65 500.308C1239.37 524.81 1223.82 550.345 1214.95 579.058C1200.84 624.789 1245.96 651.528 1244.7 695.105C1243.91 722.158 1223.88 741.559 1208.01 754.98C1188.48 771.484 1160.35 782.335 1150.58 812.452C1143.3 834.885 1154.72 847.94 1163.52 864.963C1178.43 893.805 1179.45 932.902 1177.9 966.288C1175.81 1011.4 1167.63 1057.18 1153.72 1098.65C1147.41 1117.45 1139.69 1137.01 1128.31 1151.61C1117.66 1165.29 1107.58 1168.8 1093.34 1165.99C1049.75 1157.41 1005.74 1133.47 963.947 1112.09C911.432 1085.22 859.641 1055.56 809.396 1022.18C775.134 999.424 740.1 975.344 710.027 943.9C702.189 935.703 694.163 926.794 688.432 915.981C684.099 907.854 682.26 901.144 674.958 896.503C653.313 882.756 623.206 886.351 600.015 887.78C562.932 890.056 526.028 896.113 489.174 901.567C467.668 904.771 427.155 914.853 409.982 890.671C395.159 869.79 413.046 834.186 422.183 815.791C445.295 769.273 475.025 728.446 502.609 686.407C515.251 667.141 528.388 647.727 538.829 626.308C541.496 620.847 545.769 613.611 546.503 606.977C547.326 599.376 543.484 593.575 539.597 587.839Z" stroke="#5BE7C3" stroke-width="2"/>
<path fill-rule="evenodd" clip-rule="evenodd" d="M542.319 598.666C513.065 557.512 477.822 523.703 446.416 485.192C432.334 467.925 418.114 449.811 407.384 428.747C401.613 417.419 395.484 403.161 397.076 389.081C401.643 348.672 455.643 352.321 477.46 349.955C509.877 346.478 547.118 342.976 575.782 321.187C594.559 306.915 601.6 285.838 598.094 258.654C594.331 229.495 602.745 208.329 621.894 192.062C645.902 171.684 676.207 163.378 704.083 157.477C737.667 150.401 771.677 147.264 805.697 148.105C838.784 148.926 870.839 141.755 903.708 137.092C947.286 130.915 992.262 127.869 1035.35 140.53C1072.86 151.556 1106.75 175.853 1132.15 213.428C1158.68 252.644 1171.82 302.053 1193.36 345.439C1206.8 372.501 1225.53 408.298 1250.64 418.818C1259.02 422.326 1274.28 417.593 1267.59 434.853C1263.77 444.725 1256.61 453.384 1250.96 461.453C1241.83 474.493 1232.39 487.174 1223.1 500.035C1203.31 527.449 1182.11 555.447 1167.28 587.909C1148.59 628.781 1176.37 660.236 1172.99 701.678C1171.17 723.981 1159.18 741.78 1146.49 755.763C1138.29 764.82 1129.31 772.665 1120.14 779.983C1110.57 787.629 1099.24 793.453 1090.89 803.337C1078.99 817.404 1084.15 834.055 1086.39 852.239C1090.31 884.196 1091.18 916.658 1088.95 948.889C1086.24 988.394 1079.87 1029.03 1066.44 1064.93C1061.22 1078.91 1054.61 1093.72 1044.79 1103.09C1034.96 1112.46 1024.8 1111.82 1013.55 1109C980.164 1100.66 946.85 1081.26 915.181 1062.87C875.545 1039.85 836.687 1014.12 799.579 984.853C773.964 964.649 748.266 942.821 726.836 915.426C720.604 907.453 714.673 898.916 709.879 889.384C706.586 882.848 704.821 874.413 700.051 869.5C685.127 854.164 655.164 858.743 637.661 859.635C602.73 861.412 568.35 869.859 533.463 871.912C514.424 873.034 484.605 875.857 470.622 854.888C457.473 835.178 469.383 804.133 477.241 785.14C492.687 747.797 513.437 714.526 532.035 679.812C539.681 665.528 548.061 650.583 553.014 634.271C557.417 619.737 549.816 609.217 542.319 598.666Z" stroke="#5ACEF2" stroke-width="2"/>
<path fill-rule="evenodd" clip-rule="evenodd" d="M549.514 599.344C526.229 563.13 498.158 530.983 474.704 494.18C460.976 472.627 437.334 436.393 447.951 406.008C459.599 372.619 500.199 371.709 523.667 369.019C551.6 365.817 584.402 361.442 608.306 340.594C615.867 334.003 622.307 325.279 625.037 313.789C627.96 301.491 624.765 290.731 624.348 278.42C623.476 252.595 635.396 231.862 651.171 217.624C673.465 197.493 701.343 187.975 727.675 181.339C757.507 173.855 787.835 170.165 818.224 170.323C847.266 170.451 876.001 169.618 905.073 168.657C943.092 167.376 981.646 169.445 1018.53 182.505C1054.86 195.379 1087.89 219.507 1113.83 254.997C1139.14 289.629 1156.22 331.96 1171.18 375.078C1179.66 399.552 1194 436.124 1214.24 448.486C1223.25 453.988 1232.08 453.61 1222.51 467.919C1210.45 485.936 1194.21 500.392 1180.25 515.803C1160.11 538.041 1139.46 560.715 1122.56 587.155C1111.77 604.038 1106.95 620.422 1107.7 642.283C1108.27 658.936 1110.88 675.416 1109.56 692.133C1106.47 731.37 1082.58 758.278 1061.45 783.334C1047.86 799.449 1035.45 811.74 1028.46 834.664C1020.19 861.757 1016.71 891.233 1011.18 919.364C1005.11 950.255 998.094 982.389 984.837 1009.6C973.036 1033.82 958.683 1044.68 937.201 1038.16C903.695 1027.99 870.67 1002.93 840.925 979.75C810.649 956.167 780.894 929.65 755.805 897.235C742.26 879.73 733.016 859.176 720.987 840.371C705.856 816.762 671.627 825.703 651.285 827.702C617.516 831.019 511.262 855.845 521.066 775.437C525.159 741.874 541.275 710.9 553.061 681.283C557.946 668.992 565.016 654.241 566.121 640.156C567.325 624.816 556.514 610.245 549.514 599.344Z" stroke="#FF8062" stroke-width="2"/>
<path fill-rule="evenodd" clip-rule="evenodd" d="M561.808 602.411C544.014 569.594 522.719 538.591 507.45 503.146C497.546 480.191 487.819 449.521 500.596 425.233C515.018 397.824 546.817 391.435 570.183 387.943C594.256 384.348 622.995 381.323 642.671 360.541C648.931 353.921 654.091 344.994 655.052 334.305C655.978 324.051 653.363 313.798 654.23 303.359C656.171 279.917 667.161 260.602 681.33 246.594C723.242 205.151 785.622 195.935 836.191 194.852C861.503 194.314 887.553 197.14 913.028 199.165C946.085 201.793 979.192 207.432 1010.72 221.024C1077.75 249.913 1122.68 313.984 1154.06 393.71C1163.93 418.805 1171.49 445.958 1186.97 466.125C1194.94 476.538 1193.2 484.017 1185.04 493.514C1172.29 508.356 1156.74 519.699 1142.58 532.086C1122.45 549.703 1101.89 567.582 1084.08 588.685C1071.81 603.232 1063.1 617.247 1060.46 639.061C1058.57 654.614 1059.01 670.462 1057.88 686.111C1055.72 715.839 1048.32 745.344 1035.23 770.003C1024.83 789.549 1012.45 807.312 999.656 824.25C983.02 846.301 968.951 868.705 956.317 894.876C939.568 929.52 916.034 993.424 876.583 976.512C833.071 957.851 792.288 910.436 764.372 864.494C754.997 849.069 747.301 830.152 734.657 818.777C715.729 801.776 696.524 802.372 674.01 802.442C640.304 802.538 566.959 812.003 566.166 746.689C565.854 720.812 574.511 696.345 578.656 671.455C583.331 643.579 573.961 624.777 561.808 602.411Z" stroke="#F1B170" stroke-width="2"/>
<path fill-rule="evenodd" clip-rule="evenodd" d="M575.061 605.341C557.461 562.57 517.993 492.287 548.011 444.725C563.868 419.59 591.914 410.145 615.441 404.516C634.375 399.962 657.208 398.253 671.513 378.951C682.028 364.76 677.36 344.108 681.389 326.343C686.389 304.32 697.865 286.3 711.967 272.756C751.375 234.902 806.169 223.286 853.575 220.814C902.81 218.252 957.059 230.234 1003.39 253.282C1061.16 282.029 1104.43 336.462 1134.7 405.393C1140.29 418.117 1145.36 431.175 1150.72 444.053C1154.32 452.692 1159.66 461.049 1162.5 470.136C1167.23 485.288 1161.66 497.673 1152.73 507.548C1139.89 521.764 1124.11 531.882 1109.47 542.551C1089.45 557.152 1068.98 571.49 1050.35 588.621C1037.83 600.148 1024.73 612.565 1020.25 632.564C1017.19 646.204 1016.56 660.651 1016.67 674.778C1016.91 705.069 1015.68 729.564 1004.75 757.305C986.76 802.85 959.1 843.802 929.88 877.877C906.947 904.62 870.661 946.162 837.248 928.282C807.269 912.273 789.733 873.952 769.982 842.97C760.379 827.908 749.592 814.152 736.916 803.439C720.936 789.933 705.892 784.266 686.959 782.056C655.092 778.336 607.042 777.369 597.191 727.931C593.554 709.686 595.63 690.788 593.723 672.307C591.23 647.869 583.941 626.916 575.061 605.341Z" stroke="#5BE7C3" stroke-width="2"/>
<path fill-rule="evenodd" clip-rule="evenodd" d="M593.363 606.926C580.83 560.126 564.365 501.145 594.636 459.55C609.298 439.4 629.923 428.136 649.884 419.718C664.18 413.686 686.88 411.91 695.645 393.363C702.082 379.714 702.974 360.885 708.797 346.261C716.799 326.156 728.922 309.597 743.144 296.633C780.194 262.854 828.45 249.801 872.458 246.063C968.08 237.954 1065.37 302.544 1116.54 408.813C1131.8 440.49 1151.49 474.205 1126.84 506.568C1099.92 541.874 1059.37 558.414 1027.24 583.5C1014.96 593.078 999.321 604.592 992.473 621.934C988.353 632.359 988.07 645.437 987.882 656.913C987.387 686.14 985.51 712.426 976.424 739.698C962.39 781.844 940.012 820.727 914.653 852.577C892.538 880.349 860.999 912.987 828.881 892.966C804.255 877.579 788.637 844.922 769.503 820.849C748.209 794.038 721.875 775.971 692.956 767.144C664.824 758.578 633.969 752.802 619.143 716.413C614.057 703.931 608.744 687.769 606.837 673.953C603.759 651.174 599.253 628.758 593.363 606.926V606.926Z" stroke="#FF8062" stroke-width="2"/>
<path fill-rule="evenodd" clip-rule="evenodd" d="M613.77 607.251C607.971 559.993 607.327 510.716 634.267 473.469C646.84 456.093 662.733 443.748 678.804 432.563C690.629 424.333 702.84 417.391 711.671 403.899C719.853 391.406 726.073 376.901 733.972 364.082C744.392 347.094 756.861 332.387 770.897 320.528C806.084 290.858 848.887 276.981 889.836 272.167C909.659 269.828 931.162 268.61 950.852 274.988C969.867 281.141 988.669 290.871 1006.15 302.216C1043.32 326.31 1075.53 361.595 1098.89 406.206C1114.9 436.806 1123.56 466.559 1102.82 497.601C1079.44 532.592 1042.79 551.898 1012.58 574.607C991.861 590.183 968.638 605.45 964.767 638.55C961.685 664.887 959.182 689.885 951.208 714.78C939.341 751.501 921.892 784.764 899.896 812.598C879.781 837.954 854.333 859.471 825.56 845.928C802.763 835.179 785.076 811.098 765.159 793.881C742.962 774.652 718.574 764.051 692.894 755.526C669.815 747.834 648.083 736.015 633.167 710.921C630.114 705.793 626.907 700.211 624.553 694.474C621.55 687.154 621.783 679.898 621.193 671.694C619.657 650.042 616.391 628.64 613.77 607.251Z" stroke="#F1B170" stroke-width="2"/>
<path fill-rule="evenodd" clip-rule="evenodd" d="M636.27 603.391C636.765 558.503 645.112 516.08 667.972 481.097C677.745 466.133 689.416 453.806 700.17 440.093C708.828 429.038 717.012 418.766 726.968 409.656C750.586 388.085 769.781 360.171 794.88 340.962C828.385 315.283 866.765 301.088 904.847 295.413C923.442 292.639 942.652 291.67 961.465 294.803C977.623 297.493 993.098 306.937 1007.45 316.599C1035.59 335.525 1062.91 362.424 1081.18 396.457C1121.45 471.487 1042.04 526.037 1001.29 557.983C982.542 572.678 953.901 589.698 946.223 618.806C940.735 639.6 937.391 660.747 930.323 680.9C911.336 735.02 872.793 798.674 821.431 790.2C799.452 786.579 779.42 771.871 758.903 761.997C737.776 751.828 715.971 746.159 694.013 739.938C673.49 734.128 657.134 725.859 643.879 703.691C637.543 693.104 638.103 680.431 637.538 667.443C636.617 646.11 636.047 624.654 636.27 603.391Z" stroke="#5BE7C3" stroke-width="2"/>
<path fill-rule="evenodd" clip-rule="evenodd" d="M656.759 597.639C665.01 529.884 695.657 455.914 740.719 416.566C793.726 370.279 851.15 331.302 914.481 320.097C943.843 314.901 976.007 312.345 1003.71 329.335C1024.8 342.257 1049.29 361.573 1060.89 388.736C1089.28 455.178 1026.14 508.07 990.16 538.808C970.79 555.356 946.134 571.481 931.535 595.646C923.065 609.657 918.741 628.191 911.903 643.58C891.179 690.212 857.066 727.825 814.573 734.552C794.926 737.659 775.134 733.815 755.636 730.759C735.676 727.633 715.468 725.935 695.632 721.572C679.798 718.087 661.138 712.187 655.306 690.27C647.952 662.652 653.392 625.308 656.759 597.639Z" stroke="#5ACEF2" stroke-width="2"/>
<path fill-rule="evenodd" clip-rule="evenodd" d="M676.85 586.757C688.884 523.055 714.368 460.919 757.209 422.89C779.928 402.725 806.301 388.805 831.621 375.052C860.322 359.465 890.309 347.365 920.936 341.364C959.07 333.888 1020.83 327.149 1040.76 383.349C1060.53 439.131 1010.56 488.502 981.01 516.637C962.064 534.661 941.788 551.203 923.687 570.907C913.871 581.589 906.31 593.931 898.004 606.46C875.047 641.174 842.32 668.655 808.962 683.325C776.631 697.546 736.635 703.843 702.508 699.143C687.782 697.123 677.257 690.307 672.804 670.931C666.633 643.995 671.875 613.071 676.85 586.757Z" stroke="#F1B170" stroke-width="2"/>
<path fill-rule="evenodd" clip-rule="evenodd" d="M696.814 569.599C708.769 513.513 734.556 462.285 772.169 428.623C814.332 390.888 868.624 369.919 918.525 359.256C945.049 353.592 1002.53 338.236 1016.05 382.185C1029.57 426.133 990.484 469.443 967.989 493.285C940.688 522.177 911.252 550.074 881.852 575.997C856.307 598.536 829.05 621.58 801.382 638.986C785.777 648.86 769.522 656.922 752.808 663.076C740.432 667.597 724.695 674.34 711.72 670.975C678.992 662.476 691.096 596.416 696.814 569.599Z" stroke="#FF8062" stroke-width="2"/>
<path fill-rule="evenodd" clip-rule="evenodd" d="M721.457 552.804C747.688 446.737 830.797 394.572 910.817 376.389C929.412 372.169 981.538 356.951 991.932 389.352C1002 420.767 969.972 458.022 954.975 475.673C908.506 530.368 851.094 570.922 796.691 611.098C779.71 623.638 749.084 650.851 728.019 638.298C705.149 624.644 716.022 574.797 721.457 552.804Z" stroke="#5ACEF2" stroke-width="2"/>
<path fill-rule="evenodd" clip-rule="evenodd" d="M748.326 532.387C771.138 454.278 837.489 409.479 898.492 394.71C913.434 391.097 951.381 379.846 962.698 401.643C973.17 421.806 948.178 451.023 938.828 462.633C918.012 488.486 893.343 509.783 868.971 530.254C846.437 549.193 823.66 568.607 799.949 584.625C787.46 593.057 764.037 611.048 749.845 598.029C734.566 584.023 743.261 549.732 748.326 532.387Z" stroke="#5ACEF2" stroke-width="2"/>
<path fill-rule="evenodd" clip-rule="evenodd" d="M14.8456 663.572C14.2172 613.531 -6.34107 561.524 3.81187 510.535C12.149 468.658 54.1214 465.162 79.3009 446.189C99.3099 431.116 110.665 404.414 121.486 378.795C131.209 355.795 139.941 332.103 150.183 309.48C156.814 294.855 168.199 266.137 182.577 265.618C196.342 265.119 208.964 287.498 216.959 300.727C227.384 317.971 236.627 336.355 246.75 353.874C263.81 383.425 284.279 405.298 307.717 426C334.389 449.555 361.502 472.306 389.055 494.252C409.341 510.458 429.765 526.543 449.265 544.35C461.496 555.524 488.491 576.488 488.615 597.087C488.674 606.916 481.475 617.802 476.621 625.658C468.408 638.958 459.047 651.118 449.656 663.015C432.165 685.176 413.932 706.332 395.898 727.745C372.489 755.535 350.13 782.87 329.552 814.419C308.276 847.075 287.951 880.807 267.209 914.078C253.163 936.618 239.131 961.93 218.869 975.761C193.492 993.049 172.661 974.819 146.997 974.608C124.92 974.422 126.548 908.239 123.742 889.836C120.927 871.209 114.722 853.869 112.318 835.197C109.319 811.889 109.28 788.044 108.543 764.486C107.647 735.672 107.291 708.241 83.4867 697.253C69.9396 691.01 55.2842 689.697 41.262 685.957C32.1778 683.531 15.0435 679.381 14.8456 663.572Z" stroke="#FF8062" stroke-width="2"/>
<path fill-rule="evenodd" clip-rule="evenodd" d="M25.6993 654.674C23.3852 612.727 9.71341 559.038 22.6419 515.738C33.6873 478.736 68.2309 473.939 91.4912 454.501C110.693 438.469 119.241 412.234 128.839 386.46C136.54 365.785 144.008 344.911 152.749 324.897C159.191 310.147 169.027 285.246 182.421 282.193C194.463 279.448 207.376 301.432 214.135 312.616C223.997 328.943 232.431 346.675 241.142 364.034C256.449 394.528 272.123 421.949 294.526 444.35C317.028 466.846 341.646 483.667 366.527 501.174C385.991 514.872 405.357 528.968 423.85 544.782C437.626 556.556 457.432 571.626 463.735 592.622C468.725 609.232 443.418 636.794 435.956 646.523C420.594 666.525 404.316 685.302 388.008 703.963C368.127 726.703 347.612 746.59 330.055 772.53C298.654 818.908 272.405 876.663 231.999 911.132C207.629 931.923 180.509 937.239 153.403 934.129C142.67 932.897 140.093 913.293 138.74 901.859C136.49 882.864 136.208 863.542 134.479 844.47C132.858 826.616 129.261 809.654 126.362 792.147C123.428 774.409 122.606 756.235 120.445 738.375C119.107 727.287 117.784 714.384 111.932 705.47C105.876 696.242 95.8865 692.375 87.1552 689.438C70.7581 683.974 27.3345 684.276 25.6993 654.674Z" stroke="#5BE7C3" stroke-width="2"/>
<path fill-rule="evenodd" clip-rule="evenodd" d="M39.6684 637.112C35.7765 598.608 30.3279 550.652 46.1829 515.177C59.1426 486.171 86.7823 479.914 106.524 461.014C122.945 445.297 129.147 420.3 137.297 397.071C143.985 378.018 150.708 358.881 158.814 340.75C164.962 327 172.884 308.356 185.091 303.559C195.527 299.46 207.316 317.822 213.102 326.961C222.953 342.537 230.985 359.989 238.962 377.211C252.011 405.391 264.019 435.492 282.591 458.414C300.637 480.657 322.074 493.786 343.914 508.548C360.641 519.859 377.265 531.604 393.025 545.092C405.127 555.442 420.125 567.707 426.431 584.928C431.885 599.781 417.884 617.361 410.888 627.839C399.337 645.131 386.516 660.995 373.874 676.923C360.23 694.106 345.118 709.957 331.916 727.563C304.152 764.613 281.971 805.634 247.752 834.019C225.591 852.406 195.77 869.109 169.573 866.106C150.733 863.941 151.972 810.002 150.163 792.768C147.188 764.588 141.442 734.98 132.315 709.022C124.476 686.779 105.85 679.92 88.7159 674.931C77.9823 671.799 66.733 670.108 56.3514 665.267C44.3337 659.656 41.2995 653.252 39.6684 637.112Z" stroke="#5ACEF2" stroke-width="2"/>
<path fill-rule="evenodd" clip-rule="evenodd" d="M52.6983 619.066C50.3811 586.513 50.9021 548.018 65.9122 519.859C79.0664 495.193 102.487 488.699 119.145 469.269C132.145 454.11 137.251 429.393 144.242 409.346C152.787 384.835 164.76 339.564 186.315 330.34C206.367 321.765 227.336 376.542 234.595 392.877C246.087 418.731 255.699 447.083 269.637 470.958C281.64 491.513 297.722 502.875 314.791 515.086C336.555 530.682 369.597 549.174 381.233 579.569C389.906 602.218 361.702 635.888 352.071 651.581C341.998 667.973 334.411 687.403 324.016 703.217C307.611 728.172 281.03 748.264 259.083 763.596C237.746 778.511 210.039 795.019 185.834 794.036C169.926 793.393 166.899 761.611 163.505 746.086C158.642 724.016 152.177 704.238 138.288 689.227C124.151 673.946 107.489 666.746 89.9729 660.445C80.9818 657.233 70.7253 654.728 62.6819 648.24C53.795 641.181 53.5915 631.578 52.6983 619.066Z" stroke="#F1B170" stroke-width="2"/>
<path fill-rule="evenodd" clip-rule="evenodd" d="M68.5747 600.3C68.7032 572.177 73.6739 542.187 88.4127 520.493C100.688 502.424 119.903 496.384 131.655 477.912C140.963 463.287 145.701 442.757 151.933 425.774C159.555 404.963 170.332 368.607 189.285 361.384C207.782 354.353 224.143 394.397 231.236 410.242C241.622 433.476 250.03 458.104 260.511 481.274C268.721 499.452 278.761 511.168 292.13 522.884C307.823 536.645 329.719 551.889 338.102 574.657C344.146 591.141 329.516 617.481 324.204 632.003C320.643 641.757 317.384 651.664 315.593 662.236C314.199 670.468 314.06 678.087 310.019 685.157C299.846 702.938 277.54 705.259 262.405 711.12C242.305 718.899 220.978 727.738 199.943 729.426C187.014 730.48 180.417 715.07 173.037 704.23C164.318 691.414 151.973 682.197 141.191 672.527C126.961 659.743 111.476 651.792 95.4557 643.649C88.2297 639.974 79.7425 636.369 74.1438 629.063C68.2977 621.489 68.5301 610.45 68.5747 600.3Z" stroke="#FF8062" stroke-width="2"/>
<path fill-rule="evenodd" clip-rule="evenodd" d="M85.2493 583.603C87.804 559.983 95.7651 537.408 109.212 520.71C119.52 507.891 133.209 500.673 141.482 485.271C149.191 470.913 154.563 454.587 160.93 439.236C167.668 423.007 177.679 395.881 193.22 391.464C209.969 386.708 222.871 414.071 230.015 429.237C239.041 448.402 245.898 469.022 253.968 488.847C260.048 503.624 267.803 517.138 276.975 528.94C286.595 541.382 299.641 553.297 304.508 570.405C308.81 585.558 300.76 603.89 299.339 619.254C297.819 635.669 300.482 652.911 292.056 667.006C274.678 696.074 231.065 690.684 206.132 691.306C181.531 691.947 161.752 674.16 141.844 657.238C128.694 646.066 115 636.605 101.518 626.195C87.7743 615.575 83.0015 604.39 85.2493 583.603Z" stroke="#5ACEF2" stroke-width="2"/>
<path fill-rule="evenodd" clip-rule="evenodd" d="M100.741 570.086C108.296 535.867 131.892 517.68 148.76 491.821C162.562 470.651 172.911 426.809 196.155 421.01C222.544 414.428 238.343 472.517 247.517 494.932C257.698 519.791 275.829 540.012 283.369 566.327C287.332 580.139 283.929 593.027 281.819 606.832C279.505 621.991 277.766 637.49 269.78 649.692C254.061 673.704 223.362 673.537 201.252 674.198C178.365 674.884 158.118 658.429 139.883 642.007C120.542 624.615 93.0033 605.177 100.741 570.086Z" stroke="#5ACEF2" stroke-width="2"/>
<path fill-rule="evenodd" clip-rule="evenodd" d="M113.395 560.806C121.908 536.427 139.797 516.607 154.312 497.896C166.428 482.298 179.462 450.897 197.934 448.659C219.646 446.019 232.804 479.549 241.347 500.109C249.755 520.312 261.87 541.643 266.526 563.816C271.381 586.914 258.452 618.022 246.122 634.366C232.37 652.592 209.87 659.326 190.564 658.599C170.35 657.859 151.802 642.797 136.493 627.173C120.126 610.471 103.495 589.108 113.395 560.806Z" stroke="#FF8062" stroke-width="2"/>
<path fill-rule="evenodd" clip-rule="evenodd" d="M125.136 556.214C133.268 535.937 147.363 518.784 160.359 503.483C170.389 491.671 185.189 471.585 199.658 471.093C215.577 470.55 229.068 487.409 235.396 504.69C241.635 521.735 248.208 543.105 249.142 561.804C251.17 602.525 209.883 648.139 178.88 644.428C149.486 640.908 108.923 596.616 125.136 556.214Z" stroke="#5ACEF2" stroke-width="2"/>
<path fill-rule="evenodd" clip-rule="evenodd" d="M135.994 553.981C147.212 527.561 174.461 489.896 199.687 489.002C228.643 487.979 235.912 529.893 232.138 560.268C228.304 591.269 194.92 636.141 168.3 630.078C142.32 624.161 122.7 585.314 135.994 553.981Z" stroke="#5BE7C3" stroke-width="2"/>
</svg>
